<?xml version="1.0" encoding="UTF-8"?>
<svg xmlns="http://www.w3.org/2000/svg" xmlns:xlink="http://www.w3.org/1999/xlink" width="240px" height="290px" viewBox="0 0 120 145" version="1.1">
<defs>
<linearGradient id="linear0" gradientUnits="userSpaceOnUse" x1="119.5" y1="0" x2="119.5" y2="91" gradientTransform="matrix(0.5,0,0,0.5,0,0)">
<stop offset="0" style="stop-color:rgb(85.098039%,85.098039%,85.098039%);stop-opacity:1;"/>
<stop offset="1" style="stop-color:rgb(89.019608%,87.45098%,80%);stop-opacity:1;"/>
</linearGradient>
<filter id="alpha" filterUnits="objectBoundingBox" x="0%" y="0%" width="100%" height="100%">
  <feColorMatrix type="matrix" in="SourceGraphic" values="0 0 0 0 1 0 0 0 0 1 0 0 0 0 1 0 0 0 1 0"/>
</filter>
<mask id="mask0">
  <g filter="url(#alpha)">
<rect x="0" y="0" width="120" height="145" style="fill:rgb(0%,0%,0%);fill-opacity:0.8;stroke:none;"/>
  </g>
</mask>
<clipPath id="clip1">
  <rect x="0" y="0" width="120" height="145"/>
</clipPath>
<g id="surface5" clip-path="url(#clip1)">
<path style=" stroke:none;fill-rule:nonzero;fill:rgb(3.921569%,3.529412%,3.137255%);fill-opacity:1;" d="M 25.5 13.5 L 87.5 13.5 C 88.328125 13.5 89 14.171875 89 15 C 89 15.828125 88.328125 16.5 87.5 16.5 L 25.5 16.5 C 24.671875 16.5 24 15.828125 24 15 C 24 14.171875 24.671875 13.5 25.5 13.5 Z M 25.5 13.5 "/>
</g>
<mask id="mask1">
  <g filter="url(#alpha)">
<rect x="0" y="0" width="120" height="145" style="fill:rgb(0%,0%,0%);fill-opacity:0.501961;stroke:none;"/>
  </g>
</mask>
<clipPath id="clip2">
  <rect x="0" y="0" width="120" height="145"/>
</clipPath>
<g id="surface8" clip-path="url(#clip2)">
<path style=" stroke:none;fill-rule:nonzero;fill:rgb(3.921569%,3.529412%,3.137255%);fill-opacity:1;" d="M 25.5 18.5 L 72.5 18.5 C 73.328125 18.5 74 19.171875 74 20 C 74 20.828125 73.328125 21.5 72.5 21.5 L 25.5 21.5 C 24.671875 21.5 24 20.828125 24 20 C 24 19.171875 24.671875 18.5 25.5 18.5 Z M 25.5 18.5 "/>
</g>
<mask id="mask2">
  <g filter="url(#alpha)">
<rect x="0" y="0" width="120" height="145" style="fill:rgb(0%,0%,0%);fill-opacity:0.301961;stroke:none;"/>
  </g>
</mask>
<clipPath id="clip3">
  <rect x="0" y="0" width="120" height="145"/>
</clipPath>
<g id="surface11" clip-path="url(#clip3)">
<path style=" stroke:none;fill-rule:nonzero;fill:rgb(3.921569%,3.529412%,3.137255%);fill-opacity:1;" d="M 25.5 23.5 L 72.5 23.5 C 73.328125 23.5 74 24.171875 74 25 C 74 25.828125 73.328125 26.5 72.5 26.5 L 25.5 26.5 C 24.671875 26.5 24 25.828125 24 25 C 24 24.171875 24.671875 23.5 25.5 23.5 Z M 25.5 23.5 "/>
</g>
<mask id="mask3">
  <g filter="url(#alpha)">
<rect x="0" y="0" width="120" height="145" style="fill:rgb(0%,0%,0%);fill-opacity:0.2;stroke:none;"/>
  </g>
</mask>
<clipPath id="clip4">
  <rect x="0" y="0" width="120" height="145"/>
</clipPath>
<g id="surface14" clip-path="url(#clip4)">
<path style=" stroke:none;fill-rule:nonzero;fill:rgb(3.921569%,3.529412%,3.137255%);fill-opacity:1;" d="M 25.5 28.5 L 87.5 28.5 C 88.328125 28.5 89 29.171875 89 30 C 89 30.828125 88.328125 31.5 87.5 31.5 L 25.5 31.5 C 24.671875 31.5 24 30.828125 24 30 C 24 29.171875 24.671875 28.5 25.5 28.5 Z M 25.5 28.5 "/>
</g>
</defs>
<g id="surface1">
<path style=" stroke:none;fill-rule:nonzero;fill:rgb(47.450981%,51.764709%,47.058824%);fill-opacity:1;" d="M 0 37.5 C 0 30.597656 5.597656 25 12.5 25 L 107.5 25 C 114.402344 25 120 30.597656 120 37.5 L 120 132.5 C 120 139.402344 114.402344 145 107.5 145 L 12.5 145 C 5.597656 145 0 139.402344 0 132.5 Z M 0 37.5 "/>
<path style=" stroke:none;fill-rule:nonzero;fill:rgb(89.019608%,87.450981%,80.000001%);fill-opacity:1;" d="M 13 33 L 108 33 C 110.761719 33 113 35.238281 113 38 L 113 65.5 C 113 68.261719 110.761719 70.5 108 70.5 L 13 70.5 C 10.238281 70.5 8 68.261719 8 65.5 L 8 38 C 8 35.238281 10.238281 33 13 33 Z M 13 33 "/>
<path style=" stroke:none;fill-rule:nonzero;fill:rgb(3.921569%,3.529412%,3.137255%);fill-opacity:1;" d="M 22.5 107 C 22.5 103.410156 19.589844 100.5 16 100.5 C 12.410156 100.5 9.5 103.410156 9.5 107 C 9.5 110.589844 12.410156 113.5 16 113.5 C 19.589844 113.5 22.5 110.589844 22.5 107 Z M 22.5 107 "/>
<path style=" stroke:none;fill-rule:nonzero;fill:rgb(3.921569%,3.529412%,3.137255%);fill-opacity:1;" d="M 31.5 89.5 C 31.5 85.910156 28.589844 83 25 83 C 21.410156 83 18.5 85.910156 18.5 89.5 C 18.5 93.089844 21.410156 96 25 96 C 28.589844 96 31.5 93.089844 31.5 89.5 Z M 31.5 89.5 "/>
<path style=" stroke:none;fill-rule:nonzero;fill:rgb(3.921569%,3.529412%,3.137255%);fill-opacity:1;" d="M 40.5 107 C 40.5 103.410156 37.589844 100.5 34 100.5 C 30.410156 100.5 27.5 103.410156 27.5 107 C 27.5 110.589844 30.410156 113.5 34 113.5 C 37.589844 113.5 40.5 110.589844 40.5 107 Z M 40.5 107 "/>
<path style=" stroke:none;fill-rule:nonzero;fill:rgb(3.921569%,3.529412%,3.137255%);fill-opacity:1;" d="M 49.5 89.5 C 49.5 85.910156 46.589844 83 43 83 C 39.410156 83 36.5 85.910156 36.5 89.5 C 36.5 93.089844 39.410156 96 43 96 C 46.589844 96 49.5 93.089844 49.5 89.5 Z M 49.5 89.5 "/>
<path style=" stroke:none;fill-rule:nonzero;fill:rgb(3.921569%,3.529412%,3.137255%);fill-opacity:1;" d="M 58.5 107 C 58.5 103.410156 55.589844 100.5 52 100.5 C 48.410156 100.5 45.5 103.410156 45.5 107 C 45.5 110.589844 48.410156 113.5 52 113.5 C 55.589844 113.5 58.5 110.589844 58.5 107 Z M 58.5 107 "/>
<path style=" stroke:none;fill-rule:nonzero;fill:rgb(3.921569%,3.529412%,3.137255%);fill-opacity:1;" d="M 76.5 107 C 76.5 110.589844 73.589844 113.5 70 113.5 C 66.410156 113.5 63.5 110.589844 63.5 107 C 63.5 103.410156 66.410156 100.5 70 100.5 C 73.589844 100.5 76.5 103.410156 76.5 107 Z M 76.5 107 "/>
<path style=" stroke:none;fill-rule:nonzero;fill:rgb(3.921569%,3.529412%,3.137255%);fill-opacity:1;" d="M 85.5 124.5 C 85.5 128.089844 82.589844 131 79 131 C 75.410156 131 72.5 128.089844 72.5 124.5 C 72.5 120.910156 75.410156 118 79 118 C 82.589844 118 85.5 120.910156 85.5 124.5 Z M 85.5 124.5 "/>
<path style=" stroke:none;fill-rule:nonzero;fill:rgb(3.921569%,3.529412%,3.137255%);fill-opacity:1;" d="M 94.5 107 C 94.5 110.589844 91.589844 113.5 88 113.5 C 84.410156 113.5 81.5 110.589844 81.5 107 C 81.5 103.410156 84.410156 100.5 88 100.5 C 91.589844 100.5 94.5 103.410156 94.5 107 Z M 94.5 107 "/>
<path style=" stroke:none;fill-rule:nonzero;fill:rgb(3.921569%,3.529412%,3.137255%);fill-opacity:1;" d="M 103.5 124.5 C 103.5 128.089844 100.589844 131 97 131 C 93.410156 131 90.5 128.089844 90.5 124.5 C 90.5 120.910156 93.410156 118 97 118 C 100.589844 118 103.5 120.910156 103.5 124.5 Z M 103.5 124.5 "/>
<path style=" stroke:none;fill-rule:nonzero;fill:rgb(3.921569%,3.529412%,3.137255%);fill-opacity:1;" d="M 112.5 107 C 112.5 110.589844 109.589844 113.5 106 113.5 C 102.410156 113.5 99.5 110.589844 99.5 107 C 99.5 103.410156 102.410156 100.5 106 100.5 C 109.589844 100.5 112.5 103.410156 112.5 107 Z M 112.5 107 "/>
<path style=" stroke:none;fill-rule:nonzero;fill:url(#linear0);" d="M 18 0 L 101.5 0 C 102.878906 0 104 1.121094 104 2.5 L 104 43 C 104 44.378906 102.878906 45.5 101.5 45.5 L 18 45.5 C 16.621094 45.5 15.5 44.378906 15.5 43 L 15.5 2.5 C 15.5 1.121094 16.621094 0 18 0 Z M 18 0 "/>
<path style=" stroke:none;fill-rule:nonzero;fill:rgb(3.921569%,3.529412%,3.137255%);fill-opacity:1;" d="M 25.5 8.5 L 47.5 8.5 C 48.328125 8.5 49 9.171875 49 10 C 49 10.828125 48.328125 11.5 47.5 11.5 L 25.5 11.5 C 24.671875 11.5 24 10.828125 24 10 C 24 9.171875 24.671875 8.5 25.5 8.5 Z M 25.5 8.5 "/>
<use xlink:href="#surface5" mask="url(#mask0)"/>
<use xlink:href="#surface8" mask="url(#mask1)"/>
<use xlink:href="#surface11" mask="url(#mask2)"/>
<use xlink:href="#surface14" mask="url(#mask3)"/>
</g>
</svg>
